<?xml version="1.0" encoding="UTF-8" standalone="no" ?>
<!DOCTYPE svg PUBLIC "-//W3C//DTD SVG 1.1//EN" "http://www.w3.org/Graphics/SVG/1.1/DTD/svg11.dtd">
<svg xmlns="http://www.w3.org/2000/svg" xmlns:xlink="http://www.w3.org/1999/xlink" version="1.1" viewBox="0 0 1080 1080" width="100%" height="100%" preserveAspectRatio="xMidYMid meet" xml:space="preserve">
<desc>Created with Fabric.js 5.2.4</desc>
<defs>
</defs>
<g transform="matrix(1 0 0 1 540 540)" id="0fbb35b4-2d65-46a3-be4c-5d5ccd8fa879"  >
<rect style="stroke: none; stroke-width: 1; stroke-dasharray: none; stroke-linecap: butt; stroke-dashoffset: 0; stroke-linejoin: miter; stroke-miterlimit: 4; fill: rgb(255,255,255); fill-rule: nonzero; opacity: 1; visibility: hidden;" vector-effect="non-scaling-stroke"  x="-540" y="-540" rx="0" ry="0" width="1080" height="1080" />
</g>
<g transform="matrix(1 0 0 1 540 540)" id="faf4a378-5987-4d43-9810-4cc0bd6e25e6"  >
</g>
<g transform="matrix(1 0 0 1 540 540)"  >
<g style="" vector-effect="non-scaling-stroke"   >
		<g transform="matrix(0.13 0 0 -0.13 0 0)"  >
<path style="stroke: none; stroke-width: 1; stroke-dasharray: none; stroke-linecap: butt; stroke-dashoffset: 0; stroke-linejoin: miter; stroke-miterlimit: 4; fill: rgb(255,215,163); fill-rule: nonzero; opacity: 1;" vector-effect="non-scaling-stroke"  transform=" translate(-2500.35, -2497.89)" d="M 2355 3601 C 2121 3562 1893 3418 1761 3227 C 1694 3129 1629 2974 1615 2876 L 1608 2830 L 1051 2828 C 424 2825 445 2827 392 2747 L 365 2706 L 362 2133 C 360 1752 363 1546 370 1520 C 383 1471 424 1421 467 1404 C 494 1392 833 1390 2500 1390 C 4472 1390 4501 1390 4539 1410 C 4561 1421 4587 1441 4598 1455 C 4639 1506 4642 1558 4638 2140 L 4635 2695 L 4612 2735 C 4599 2757 4573 2787 4553 2800 L 4516 2825 L 3956 2828 L 3395 2831 L 3373 2923 C 3346 3035 3271 3190 3200 3277 C 3094 3408 2947 3508 2776 3565 C 2677 3598 2655 3602 2536 3605 C 2464 3607 2383 3605 2355 3601 z M 2602 3545 C 2954 3515 3270 3212 3331 2846 L 3344 2770 L 3917 2770 C 4411 2770 4495 2768 4520 2755 C 4581 2723 4580 2737 4580 2107 L 4580 1533 L 4557 1499 C 4544 1480 4520 1460 4500 1453 C 4454 1437 565 1435 508 1450 C 488 1456 460 1474 446 1491 L 420 1522 L 420 2111 L 420 2700 L 449 2732 L 478 2765 L 1064 2768 L 1650 2770 L 1654 2793 C 1656 2805 1663 2844 1670 2880 C 1723 3173 1972 3440 2267 3521 C 2343 3542 2475 3559 2515 3554 C 2526 3552 2565 3549 2602 3545 z" stroke-linecap="round" />
</g>
		<g transform="matrix(0.13 0 0 -0.13 2.46 -130.76)"  >
<path style="stroke: none; stroke-width: 1; stroke-dasharray: none; stroke-linecap: butt; stroke-dashoffset: 0; stroke-linejoin: miter; stroke-miterlimit: 4; fill: rgb(255,215,163); fill-rule: nonzero; opacity: 1;" vector-effect="non-scaling-stroke"  transform=" translate(-2518.81, -3478.58)" d="M 2551 3510 C 2550 3502 2534 3485 2515 3472 C 2496 3460 2480 3445 2480 3440 C 2480 3435 2488 3437 2498 3445 C 2507 3452 2526 3467 2539 3478 C 2552 3488 2560 3503 2557 3511 C 2553 3523 2551 3523 2551 3510 z" stroke-linecap="round" />
</g>
		<g transform="matrix(0.13 0 0 -0.13 4.29 -118.15)"  >
<path style="stroke: none; stroke-width: 1; stroke-dasharray: none; stroke-linecap: butt; stroke-dashoffset: 0; stroke-linejoin: miter; stroke-miterlimit: 4; fill: rgb(255,215,163); fill-rule: nonzero; opacity: 1;" vector-effect="non-scaling-stroke"  transform=" translate(-2532.55, -3384.05)" d="M 2590 3457 C 2590 3436 2580 3422 2543 3397 C 2477 3352 2460 3333 2460 3308 C 2461 3285 2461 3285 2474 3310 C 2482 3324 2509 3348 2535 3364 C 2589 3398 2616 3441 2601 3468 C 2592 3482 2591 3481 2590 3457 z" stroke-linecap="round" />
</g>
		<g transform="matrix(0.13 0 0 -0.13 0.88 -100.05)"  >
<path style="stroke: none; stroke-width: 1; stroke-dasharray: none; stroke-linecap: butt; stroke-dashoffset: 0; stroke-linejoin: miter; stroke-miterlimit: 4; fill: rgb(255,215,163); fill-rule: nonzero; opacity: 1;" vector-effect="non-scaling-stroke"  transform=" translate(-2506.98, -3248.23)" d="M 2646 3395 C 2653 3338 2626 3300 2540 3249 C 2469 3207 2420 3157 2420 3127 C 2420 3116 2409 3110 2383 3107 L 2345 3103 L 2383 3102 C 2408 3101 2420 3095 2420 3085 C 2420 3077 2425 3070 2430 3070 C 2436 3070 2440 3077 2440 3085 C 2440 3095 2452 3100 2478 3102 C 2514 3103 2514 3103 2483 3107 C 2465 3109 2450 3115 2450 3119 C 2450 3134 2494 3173 2560 3215 C 2597 3238 2637 3270 2648 3285 C 2673 3317 2676 3372 2655 3410 C 2642 3434 2642 3434 2646 3395 z" stroke-linecap="round" />
</g>
		<g transform="matrix(0.13 0 0 -0.13 -15.17 -86.25)"  >
<path style="stroke: none; stroke-width: 1; stroke-dasharray: none; stroke-linecap: butt; stroke-dashoffset: 0; stroke-linejoin: miter; stroke-miterlimit: 4; fill: rgb(255,215,163); fill-rule: nonzero; opacity: 1;" vector-effect="non-scaling-stroke"  transform=" translate(-2386.61, -3144.75)" d="M 2373 3143 C 2382 3141 2396 3141 2403 3143 C 2409 3146 2402 3148 2385 3148 C 2369 3148 2363 3146 2373 3143 z" stroke-linecap="round" />
</g>
		<g transform="matrix(0.13 0 0 -0.13 -24.02 -84.91)"  >
<path style="stroke: none; stroke-width: 1; stroke-dasharray: none; stroke-linecap: butt; stroke-dashoffset: 0; stroke-linejoin: miter; stroke-miterlimit: 4; fill: rgb(255,215,163); fill-rule: nonzero; opacity: 1;" vector-effect="non-scaling-stroke"  transform=" translate(-2320.18, -3134.75)" d="M 2308 3133 C 2314 3131 2326 3131 2333 3133 C 2339 3136 2334 3138 2320 3138 C 2306 3138 2301 3136 2308 3133 z" stroke-linecap="round" />
</g>
		<g transform="matrix(0.13 0 0 -0.13 -14.58 -53.21)"  >
<path style="stroke: none; stroke-width: 1; stroke-dasharray: none; stroke-linecap: butt; stroke-dashoffset: 0; stroke-linejoin: miter; stroke-miterlimit: 4; fill: rgb(255,215,163); fill-rule: nonzero; opacity: 1;" vector-effect="non-scaling-stroke"  transform=" translate(-2391.01, -2897)" d="M 2235 3116 C 2175 3090 2149 3027 2149 2912 C 2149 2856 2154 2835 2182 2781 C 2201 2745 2230 2706 2250 2691 L 2285 2665 L 2247 2709 C 2189 2774 2170 2822 2170 2910 C 2170 2951 2173 2994 2176 3006 L 2181 3027 L 2226 3004 C 2304 2965 2529 2963 2612 3001 C 2645 3016 2638 3055 2599 3075 C 2559 3096 2555 3094 2586 3067 C 2618 3039 2614 3015 2575 3000 C 2533 2984 2321 2988 2262 3005 C 2174 3031 2171 3073 2255 3111 C 2277 3121 2288 3129 2280 3129 C 2272 3129 2252 3123 2235 3116 z" stroke-linecap="round" />
</g>
		<g transform="matrix(0.13 0 0 -0.13 -23.27 -79.64)"  >
<path style="stroke: none; stroke-width: 1; stroke-dasharray: none; stroke-linecap: butt; stroke-dashoffset: 0; stroke-linejoin: miter; stroke-miterlimit: 4; fill: rgb(255,215,163); fill-rule: nonzero; opacity: 1;" vector-effect="non-scaling-stroke"  transform=" translate(-2325.86, -3095.19)" d="M 2318 3093 C 2325 3090 2334 3091 2337 3094 C 2341 3097 2335 3100 2324 3099 C 2313 3099 2310 3096 2318 3093 z" stroke-linecap="round" />
</g>
		<g transform="matrix(0.13 0 0 -0.13 4.73 -79.64)"  >
<path style="stroke: none; stroke-width: 1; stroke-dasharray: none; stroke-linecap: butt; stroke-dashoffset: 0; stroke-linejoin: miter; stroke-miterlimit: 4; fill: rgb(255,215,163); fill-rule: nonzero; opacity: 1;" vector-effect="non-scaling-stroke"  transform=" translate(-2535.86, -3095.19)" d="M 2528 3093 C 2535 3090 2544 3091 2547 3094 C 2551 3097 2545 3100 2534 3099 C 2523 3099 2520 3096 2528 3093 z" stroke-linecap="round" />
</g>
		<g transform="matrix(0.13 0 0 -0.13 17.05 -49.04)"  >
<path style="stroke: none; stroke-width: 1; stroke-dasharray: none; stroke-linecap: butt; stroke-dashoffset: 0; stroke-linejoin: miter; stroke-miterlimit: 4; fill: rgb(255,215,163); fill-rule: nonzero; opacity: 1;" vector-effect="non-scaling-stroke"  transform=" translate(-2628.2, -2865.7)" d="M 2659 3045 C 2644 3030 2644 3026 2662 2992 C 2677 2964 2680 2942 2677 2899 C 2671 2829 2651 2791 2586 2722 C 2551 2684 2543 2671 2560 2680 C 2612 2707 2648 2742 2676 2792 C 2701 2838 2705 2855 2705 2920 C 2704 2963 2698 3009 2690 3028 C 2676 3058 2674 3060 2659 3045 z" stroke-linecap="round" />
</g>
		<g transform="matrix(0.13 0 0 -0.13 36.11 -49.4)"  >
<path style="stroke: none; stroke-width: 1; stroke-dasharray: none; stroke-linecap: butt; stroke-dashoffset: 0; stroke-linejoin: miter; stroke-miterlimit: 4; fill: rgb(255,215,163); fill-rule: nonzero; opacity: 1;" vector-effect="non-scaling-stroke"  transform=" translate(-2771.18, -2868.36)" d="M 2730 2980 C 2721 2963 2724 2955 2745 2934 C 2799 2880 2797 2842 2737 2774 C 2687 2718 2718 2729 2786 2792 C 2829 2832 2830 2834 2830 2896 C 2830 2952 2827 2961 2804 2979 C 2770 3005 2744 3006 2730 2980 z" stroke-linecap="round" />
</g>
		<g transform="matrix(0.13 0 0 -0.13 -127.38 -21.61)"  >
<path style="stroke: none; stroke-width: 1; stroke-dasharray: none; stroke-linecap: butt; stroke-dashoffset: 0; stroke-linejoin: miter; stroke-miterlimit: 4; fill: rgb(255,215,163); fill-rule: nonzero; opacity: 1;" vector-effect="non-scaling-stroke"  transform=" translate(-1545, -2660)" d="M 1180 2660 C 1180 2640 1187 2640 1545 2640 C 1903 2640 1910 2640 1910 2660 C 1910 2680 1903 2680 1545 2680 C 1187 2680 1180 2680 1180 2660 z" stroke-linecap="round" />
</g>
		<g transform="matrix(0.13 0 0 -0.13 116.97 -21.61)"  >
<path style="stroke: none; stroke-width: 1; stroke-dasharray: none; stroke-linecap: butt; stroke-dashoffset: 0; stroke-linejoin: miter; stroke-miterlimit: 4; fill: rgb(255,215,163); fill-rule: nonzero; opacity: 1;" vector-effect="non-scaling-stroke"  transform=" translate(-3377.63, -2660)" d="M 2940 2660 C 2940 2640 2947 2640 3373 2640 C 3612 2640 3809 2643 3813 2646 C 3816 2649 3816 2658 3813 2666 C 3809 2678 3737 2680 3374 2680 C 2947 2680 2940 2680 2940 2660 z" stroke-linecap="round" />
</g>
		<g transform="matrix(0.13 0 0 -0.13 -10.79 -7.12)"  >
<path style="stroke: none; stroke-width: 1; stroke-dasharray: none; stroke-linecap: butt; stroke-dashoffset: 0; stroke-linejoin: miter; stroke-miterlimit: 4; fill: rgb(255,215,163); fill-rule: nonzero; opacity: 1;" vector-effect="non-scaling-stroke"  transform=" translate(-2419.44, -2551.27)" d="M 2012 2592 C 2015 2574 2101 2538 2182 2520 C 2271 2500 2513 2496 2615 2513 C 2709 2528 2821 2567 2827 2586 C 2829 2592 2809 2587 2783 2574 C 2675 2521 2378 2503 2204 2539 C 2154 2549 2089 2569 2061 2583 C 2019 2603 2010 2605 2012 2592 z" stroke-linecap="round" />
</g>
		<g transform="matrix(0.13 0 0 -0.13 -250.78 27.48)"  >
<path style="stroke: none; stroke-width: 1; stroke-dasharray: none; stroke-linecap: butt; stroke-dashoffset: 0; stroke-linejoin: miter; stroke-miterlimit: 4; fill: rgb(255,215,163); fill-rule: nonzero; opacity: 1;" vector-effect="non-scaling-stroke"  transform=" translate(-619.5, -2291.83)" d="M 567 2442 L 539 2439 L 542 2309 C 544 2238 548 2180 552 2180 C 555 2180 556 2171 553 2160 C 548 2141 553 2140 624 2140 L 700 2140 L 700 2170 C 700 2199 698 2200 655 2200 L 610 2200 L 610 2260 C 610 2310 607 2320 593 2320 C 579 2320 578 2322 589 2329 C 602 2338 614 2437 602 2443 C 598 2444 582 2444 567 2442 z" stroke-linecap="round" />
</g>
		<g transform="matrix(0.13 0 0 -0.13 -221.83 26.89)"  >
<path style="stroke: none; stroke-width: 1; stroke-dasharray: none; stroke-linecap: butt; stroke-dashoffset: 0; stroke-linejoin: miter; stroke-miterlimit: 4; fill: rgb(255,215,163); fill-rule: nonzero; opacity: 1;" vector-effect="non-scaling-stroke"  transform=" translate(-836.63, -2296.22)" d="M 805 2440 C 808 2435 807 2430 802 2430 C 793 2430 725 2162 732 2155 C 733 2153 747 2149 762 2145 C 785 2139 790 2142 796 2164 C 801 2186 808 2190 840 2190 C 872 2190 879 2186 882 2168 C 884 2150 892 2145 915 2145 C 950 2145 950 2140 919 2275 C 877 2462 882 2450 838 2450 C 814 2450 801 2446 805 2440 z M 849 2313 C 864 2260 863 2250 840 2250 C 823 2250 820 2256 823 2300 C 825 2359 835 2364 849 2313 z" stroke-linecap="round" />
</g>
		<g transform="matrix(0.13 0 0 -0.13 -148.39 27.05)"  >
<path style="stroke: none; stroke-width: 1; stroke-dasharray: none; stroke-linecap: butt; stroke-dashoffset: 0; stroke-linejoin: miter; stroke-miterlimit: 4; fill: rgb(255,215,163); fill-rule: nonzero; opacity: 1;" vector-effect="non-scaling-stroke"  transform=" translate(-1387.44, -2295)" d="M 1355 2440 C 1358 2435 1357 2430 1352 2430 C 1343 2430 1275 2162 1282 2155 C 1283 2153 1297 2149 1311 2145 C 1334 2139 1338 2142 1344 2164 C 1349 2186 1356 2190 1385 2190 C 1414 2190 1422 2185 1430 2165 C 1437 2148 1447 2140 1464 2140 C 1478 2140 1491 2143 1493 2148 C 1497 2154 1469 2289 1438 2408 C 1428 2448 1426 2450 1388 2450 C 1364 2450 1351 2446 1355 2440 z M 1399 2313 C 1414 2260 1413 2250 1390 2250 C 1373 2250 1370 2256 1373 2300 C 1375 2359 1385 2364 1399 2313 z" stroke-linecap="round" />
</g>
		<g transform="matrix(0.13 0 0 -0.13 -85.83 26.89)"  >
<path style="stroke: none; stroke-width: 1; stroke-dasharray: none; stroke-linecap: butt; stroke-dashoffset: 0; stroke-linejoin: miter; stroke-miterlimit: 4; fill: rgb(255,215,163); fill-rule: nonzero; opacity: 1;" vector-effect="non-scaling-stroke"  transform=" translate(-1856.63, -2296.22)" d="M 1825 2440 C 1828 2435 1827 2430 1822 2430 C 1813 2430 1745 2162 1752 2155 C 1753 2153 1767 2149 1781 2145 C 1804 2139 1808 2142 1814 2164 C 1819 2186 1826 2190 1859 2190 C 1892 2190 1899 2186 1902 2168 C 1904 2150 1912 2145 1935 2145 C 1970 2145 1970 2140 1939 2275 C 1897 2462 1902 2450 1858 2450 C 1834 2450 1821 2446 1825 2440 z M 1869 2313 C 1884 2260 1883 2250 1860 2250 C 1843 2250 1840 2256 1843 2300 C 1845 2359 1855 2364 1869 2313 z" stroke-linecap="round" />
</g>
		<g transform="matrix(0.13 0 0 -0.13 -41.03 27.04)"  >
<path style="stroke: none; stroke-width: 1; stroke-dasharray: none; stroke-linecap: butt; stroke-dashoffset: 0; stroke-linejoin: miter; stroke-miterlimit: 4; fill: rgb(255,215,163); fill-rule: nonzero; opacity: 1;" vector-effect="non-scaling-stroke"  transform=" translate(-2192.63, -2295.08)" d="M 2094 2439 C 2092 2435 2097 2430 2105 2426 C 2113 2423 2120 2415 2119 2408 C 2119 2398 2117 2398 2113 2408 C 2111 2414 2105 2420 2100 2420 C 2093 2420 2094 2185 2101 2154 C 2104 2141 2130 2140 2130 2153 C 2130 2158 2137 2157 2145 2150 C 2169 2130 2246 2146 2270 2177 C 2305 2222 2295 2437 2259 2414 C 2253 2411 2242 2418 2233 2429 C 2220 2448 2210 2451 2158 2448 C 2125 2447 2096 2442 2094 2439 z M 2223 2373 C 2227 2371 2230 2335 2230 2294 C 2230 2216 2228 2213 2182 2208 C 2159 2205 2158 2208 2155 2275 C 2151 2375 2156 2391 2189 2384 C 2203 2380 2218 2375 2223 2373 z" stroke-linecap="round" />
</g>
		<g transform="matrix(0.13 0 0 -0.13 28.42 27.14)"  >
<path style="stroke: none; stroke-width: 1; stroke-dasharray: none; stroke-linecap: butt; stroke-dashoffset: 0; stroke-linejoin: miter; stroke-miterlimit: 4; fill: rgb(255,215,163); fill-rule: nonzero; opacity: 1;" vector-effect="non-scaling-stroke"  transform=" translate(-2713.49, -2294.37)" d="M 2652 2443 C 2643 2440 2640 2400 2641 2289 L 2641 2140 L 2713 2143 C 2780 2145 2785 2147 2786 2167 C 2787 2179 2783 2187 2778 2184 C 2774 2181 2773 2174 2776 2168 C 2781 2161 2778 2160 2771 2164 C 2764 2169 2761 2178 2764 2185 C 2767 2195 2759 2200 2737 2202 L 2705 2205 L 2700 2325 C 2695 2448 2690 2459 2652 2443 z" stroke-linecap="round" />
</g>
		<g transform="matrix(0.13 0 0 -0.13 58.07 27.13)"  >
<path style="stroke: none; stroke-width: 1; stroke-dasharray: none; stroke-linecap: butt; stroke-dashoffset: 0; stroke-linejoin: miter; stroke-miterlimit: 4; fill: rgb(255,215,163); fill-rule: nonzero; opacity: 1;" vector-effect="non-scaling-stroke"  transform=" translate(-2935.84, -2294.38)" d="M 2892 2443 C 2893 2439 2888 2415 2880 2390 C 2845 2269 2823 2150 2836 2150 C 2843 2150 2855 2147 2864 2144 C 2875 2140 2883 2146 2890 2164 C 2898 2185 2906 2190 2935 2190 C 2964 2190 2971 2186 2976 2165 C 2981 2146 2989 2140 3011 2140 C 3043 2140 3046 2150 3030 2209 C 3019 2252 2980 2408 2976 2430 C 2974 2440 2959 2446 2931 2448 C 2908 2450 2890 2448 2892 2443 z M 2944 2319 C 2955 2264 2952 2250 2929 2250 C 2910 2250 2908 2254 2914 2281 C 2917 2298 2920 2321 2920 2331 C 2920 2362 2937 2353 2944 2319 z" stroke-linecap="round" />
</g>
		<g transform="matrix(0.13 0 0 -0.13 101.52 27.09)"  >
<path style="stroke: none; stroke-width: 1; stroke-dasharray: none; stroke-linecap: butt; stroke-dashoffset: 0; stroke-linejoin: miter; stroke-miterlimit: 4; fill: rgb(255,215,163); fill-rule: nonzero; opacity: 1;" vector-effect="non-scaling-stroke"  transform=" translate(-3261.75, -2294.7)" d="M 3227 2444 C 3224 2441 3224 2431 3227 2422 C 3231 2413 3229 2409 3223 2413 C 3211 2421 3177 2288 3186 2266 C 3189 2258 3186 2249 3180 2245 C 3171 2239 3171 2235 3181 2229 C 3192 2222 3192 2220 3179 2220 C 3163 2220 3146 2165 3157 2148 C 3167 2131 3201 2141 3212 2165 C 3221 2185 3230 2190 3261 2190 C 3292 2190 3299 2186 3302 2168 C 3304 2150 3313 2144 3338 2142 C 3355 2140 3370 2142 3370 2147 C 3369 2151 3355 2218 3337 2295 C 3311 2404 3300 2435 3288 2435 C 3279 2435 3268 2439 3264 2443 C 3255 2452 3236 2452 3227 2444 z M 3273 2320 C 3270 2309 3272 2300 3277 2300 C 3283 2300 3285 2289 3282 2275 C 3279 2258 3271 2250 3258 2250 C 3240 2250 3239 2255 3244 2293 C 3247 2316 3249 2336 3249 2338 C 3250 2339 3256 2340 3264 2340 C 3273 2340 3276 2333 3273 2320 z" stroke-linecap="round" />
</g>
		<g transform="matrix(0.13 0 0 -0.13 225.83 27.2)"  >
<path style="stroke: none; stroke-width: 1; stroke-dasharray: none; stroke-linecap: butt; stroke-dashoffset: 0; stroke-linejoin: miter; stroke-miterlimit: 4; fill: rgb(255,215,163); fill-rule: nonzero; opacity: 1;" vector-effect="non-scaling-stroke"  transform=" translate(-4194.07, -2293.87)" d="M 4133 2443 C 4123 2440 4120 2399 4120 2289 L 4120 2139 L 4195 2141 C 4266 2143 4269 2144 4268 2166 C 4267 2178 4262 2186 4258 2184 C 4253 2181 4253 2174 4256 2168 C 4261 2161 4258 2160 4251 2164 C 4244 2169 4241 2178 4244 2185 C 4247 2195 4239 2200 4217 2202 L 4185 2205 L 4180 2325 C 4175 2448 4170 2459 4133 2443 z" stroke-linecap="round" />
</g>
		<g transform="matrix(0.13 0 0 -0.13 254.17 26.89)"  >
<path style="stroke: none; stroke-width: 1; stroke-dasharray: none; stroke-linecap: butt; stroke-dashoffset: 0; stroke-linejoin: miter; stroke-miterlimit: 4; fill: rgb(255,215,163); fill-rule: nonzero; opacity: 1;" vector-effect="non-scaling-stroke"  transform=" translate(-4406.63, -2296.22)" d="M 4375 2440 C 4378 2435 4377 2430 4372 2430 C 4363 2430 4295 2162 4302 2155 C 4303 2153 4317 2149 4331 2145 C 4354 2139 4358 2142 4364 2164 C 4369 2186 4376 2190 4409 2190 C 4442 2190 4449 2186 4452 2168 C 4454 2150 4462 2145 4485 2145 C 4520 2145 4520 2140 4489 2275 C 4447 2462 4452 2450 4408 2450 C 4384 2450 4371 2446 4375 2440 z M 4419 2313 C 4434 2260 4433 2250 4410 2250 C 4393 2250 4390 2256 4393 2300 C 4395 2359 4405 2364 4419 2313 z" stroke-linecap="round" />
</g>
		<g transform="matrix(0.13 0 0 -0.13 -179.38 27.2)"  >
<path style="stroke: none; stroke-width: 1; stroke-dasharray: none; stroke-linecap: butt; stroke-dashoffset: 0; stroke-linejoin: miter; stroke-miterlimit: 4; fill: rgb(255,215,163); fill-rule: nonzero; opacity: 1;" vector-effect="non-scaling-stroke"  transform=" translate(-1155, -2293.86)" d="M 1062 2413 C 1064 2391 1071 2384 1094 2380 L 1123 2375 L 1123 2274 C 1122 2218 1125 2168 1129 2162 C 1132 2157 1146 2150 1160 2149 C 1185 2145 1185 2145 1188 2233 C 1190 2289 1187 2327 1179 2336 C 1165 2353 1186 2377 1221 2382 C 1239 2384 1246 2392 1248 2413 L 1251 2440 L 1155 2440 L 1059 2440 L 1062 2413 z" stroke-linecap="round" />
</g>
		<g transform="matrix(0.13 0 0 -0.13 -117.2 27.72)"  >
<path style="stroke: none; stroke-width: 1; stroke-dasharray: none; stroke-linecap: butt; stroke-dashoffset: 0; stroke-linejoin: miter; stroke-miterlimit: 4; fill: rgb(255,215,163); fill-rule: nonzero; opacity: 1;" vector-effect="non-scaling-stroke"  transform=" translate(-1621.36, -2290)" d="M 1540 2421 C 1540 2397 1548 2391 1589 2388 C 1607 2387 1624 2382 1626 2378 C 1629 2373 1611 2336 1585 2294 C 1560 2253 1542 2215 1545 2210 C 1548 2206 1545 2200 1538 2198 C 1531 2195 1529 2184 1534 2167 C 1539 2145 1546 2140 1570 2140 C 1592 2140 1600 2145 1600 2157 C 1600 2173 1601 2173 1613 2157 C 1622 2143 1631 2142 1656 2149 C 1678 2155 1692 2154 1699 2147 C 1707 2139 1710 2145 1710 2168 C 1710 2200 1710 2200 1660 2200 C 1633 2200 1610 2202 1610 2205 C 1610 2208 1626 2236 1646 2268 C 1666 2299 1683 2329 1684 2336 C 1685 2343 1691 2354 1697 2361 C 1709 2376 1713 2394 1711 2423 C 1710 2437 1700 2440 1658 2440 C 1624 2440 1610 2437 1619 2431 C 1630 2424 1628 2421 1611 2415 C 1598 2411 1586 2411 1583 2414 C 1579 2417 1582 2420 1588 2420 C 1595 2420 1600 2425 1600 2430 C 1600 2436 1587 2440 1570 2440 C 1547 2440 1540 2435 1540 2421 z" stroke-linecap="round" />
</g>
		<g transform="matrix(0.13 0 0 -0.13 -9.99 27.59)"  >
<path style="stroke: none; stroke-width: 1; stroke-dasharray: none; stroke-linecap: butt; stroke-dashoffset: 0; stroke-linejoin: miter; stroke-miterlimit: 4; fill: rgb(255,215,163); fill-rule: nonzero; opacity: 1;" vector-effect="non-scaling-stroke"  transform=" translate(-2425.43, -2291)" d="M 2342 2410 C 2342 2394 2346 2380 2352 2380 C 2359 2380 2359 2376 2353 2368 C 2340 2352 2342 2202 2354 2176 C 2361 2161 2360 2159 2350 2165 C 2342 2170 2339 2168 2342 2159 C 2345 2149 2369 2145 2428 2143 L 2510 2142 L 2510 2170 C 2510 2198 2508 2199 2458 2202 C 2409 2205 2405 2207 2402 2233 C 2399 2259 2400 2260 2449 2260 C 2499 2260 2500 2261 2500 2289 C 2500 2317 2498 2319 2453 2322 C 2409 2325 2405 2327 2402 2353 C 2399 2380 2400 2380 2454 2380 C 2510 2380 2510 2380 2510 2410 L 2510 2440 L 2427 2440 L 2343 2440 L 2342 2410 z" stroke-linecap="round" />
</g>
		<g transform="matrix(0.13 0 0 -0.13 133.95 27.69)"  >
<path style="stroke: none; stroke-width: 1; stroke-dasharray: none; stroke-linecap: butt; stroke-dashoffset: 0; stroke-linejoin: miter; stroke-miterlimit: 4; fill: rgb(255,215,163); fill-rule: nonzero; opacity: 1;" vector-effect="non-scaling-stroke"  transform=" translate(-3505, -2290.24)" d="M 3410 2412 C 3410 2397 3416 2378 3423 2371 C 3431 2362 3431 2359 3423 2364 C 3415 2369 3411 2342 3411 2261 C 3410 2183 3414 2151 3423 2148 C 3429 2145 3461 2142 3492 2141 C 3542 2139 3553 2142 3575 2164 C 3593 2182 3600 2200 3600 2229 C 3600 2251 3595 2272 3589 2276 C 3583 2279 3581 2293 3585 2309 C 3603 2376 3601 2389 3576 2415 C 3554 2437 3542 2440 3480 2440 L 3410 2440 L 3410 2412 z M 3529 2376 C 3543 2358 3524 2320 3500 2320 C 3476 2320 3466 2341 3474 2374 C 3478 2392 3485 2397 3500 2393 C 3510 2390 3523 2383 3529 2376 z M 3535 2235 C 3535 2208 3531 2205 3503 2202 C 3471 2199 3470 2200 3470 2235 C 3470 2270 3471 2271 3503 2268 C 3531 2265 3535 2262 3535 2235 z" stroke-linecap="round" />
</g>
		<g transform="matrix(0.13 0 0 -0.13 165.9 27.79)"  >
<path style="stroke: none; stroke-width: 1; stroke-dasharray: none; stroke-linecap: butt; stroke-dashoffset: 0; stroke-linejoin: miter; stroke-miterlimit: 4; fill: rgb(255,215,163); fill-rule: nonzero; opacity: 1;" vector-effect="non-scaling-stroke"  transform=" translate(-3744.57, -2289.5)" d="M 3652 2309 C 3655 2186 3656 2177 3679 2159 C 3714 2130 3784 2133 3815 2165 C 3842 2191 3851 2260 3828 2260 C 3819 2260 3819 2263 3826 2268 C 3832 2272 3837 2312 3839 2358 L 3841 2440 L 3810 2440 L 3779 2440 L 3780 2368 C 3781 2328 3781 2273 3781 2247 L 3780 2199 L 3748 2202 L 3715 2205 L 3712 2323 L 3709 2440 L 3679 2440 L 3648 2440 L 3652 2309 z M 3690 2189 C 3690 2175 3673 2179 3667 2194 C 3663 2204 3666 2207 3676 2203 C 3683 2200 3690 2194 3690 2189 z" stroke-linecap="round" />
</g>
		<g transform="matrix(0.13 0 0 -0.13 197.95 27.67)"  >
<path style="stroke: none; stroke-width: 1; stroke-dasharray: none; stroke-linecap: butt; stroke-dashoffset: 0; stroke-linejoin: miter; stroke-miterlimit: 4; fill: rgb(255,215,163); fill-rule: nonzero; opacity: 1;" vector-effect="non-scaling-stroke"  transform=" translate(-3985, -2290.4)" d="M 3900 2404 C 3900 2379 3903 2371 3913 2376 C 3922 2382 3922 2381 3913 2369 C 3900 2352 3897 2180 3911 2180 C 3916 2180 3920 2175 3920 2169 C 3920 2164 3916 2162 3910 2165 C 3905 2168 3900 2164 3900 2155 C 3900 2141 3912 2139 3983 2142 C 4064 2145 4065 2145 4068 2172 C 4071 2198 4069 2199 4018 2202 C 3968 2205 3965 2207 3962 2233 C 3959 2259 3960 2260 4009 2260 C 4059 2260 4060 2261 4060 2289 C 4060 2317 4058 2319 4013 2322 C 3969 2325 3965 2327 3962 2353 C 3959 2380 3960 2380 4014 2380 C 4070 2380 4070 2380 4070 2410 L 4070 2440 L 3985 2440 L 3900 2440 L 3900 2404 z" stroke-linecap="round" />
</g>
		<g transform="matrix(0.13 0 0 -0.13 -0.05 73.05)"  >
<path style="stroke: none; stroke-width: 1; stroke-dasharray: none; stroke-linecap: butt; stroke-dashoffset: 0; stroke-linejoin: miter; stroke-miterlimit: 4; fill: rgb(255,215,163); fill-rule: nonzero; opacity: 1;" vector-effect="non-scaling-stroke"  transform=" translate(-2500, -1950)" d="M 1180 1950 C 1180 1943 1627 1940 2500 1940 C 3373 1940 3820 1943 3820 1950 C 3820 1957 3373 1960 2500 1960 C 1627 1960 1180 1957 1180 1950 z" stroke-linecap="round" />
</g>
		<g transform="matrix(0.13 0 0 -0.13 -157.16 108.33)"  >
<path style="stroke: none; stroke-width: 1; stroke-dasharray: none; stroke-linecap: butt; stroke-dashoffset: 0; stroke-linejoin: miter; stroke-miterlimit: 4; fill: rgb(255,215,163); fill-rule: nonzero; opacity: 1;" vector-effect="non-scaling-stroke"  transform=" translate(-1321.65, -1685.39)" d="M 1259 1809 C 1258 1807 1256 1783 1254 1755 C 1253 1728 1249 1693 1246 1677 C 1243 1662 1243 1629 1247 1604 C 1252 1565 1256 1559 1274 1562 C 1294 1565 1296 1569 1299 1617 C 1300 1634 1308 1640 1340 1645 C 1364 1649 1384 1659 1390 1670 C 1406 1700 1401 1750 1380 1780 C 1363 1804 1352 1809 1320 1808 C 1293 1808 1282 1804 1287 1796 C 1291 1790 1286 1791 1277 1799 C 1268 1806 1259 1811 1259 1809 z M 1348 1731 C 1352 1703 1344 1695 1305 1686 C 1286 1682 1280 1683 1288 1688 C 1296 1693 1301 1700 1301 1704 C 1295 1746 1301 1761 1323 1758 C 1337 1756 1346 1747 1348 1731 z" stroke-linecap="round" />
</g>
		<g transform="matrix(0.13 0 0 -0.13 -130.86 108.39)"  >
<path style="stroke: none; stroke-width: 1; stroke-dasharray: none; stroke-linecap: butt; stroke-dashoffset: 0; stroke-linejoin: miter; stroke-miterlimit: 4; fill: rgb(255,215,163); fill-rule: nonzero; opacity: 1;" vector-effect="non-scaling-stroke"  transform=" translate(-1518.93, -1685)" d="M 1440 1793 C 1440 1777 1442 1777 1451 1790 C 1460 1802 1460 1801 1454 1785 C 1450 1774 1444 1719 1442 1663 L 1438 1560 L 1464 1560 C 1488 1560 1490 1564 1490 1599 C 1490 1656 1507 1659 1529 1607 C 1545 1569 1553 1562 1574 1564 C 1601 1565 1606 1571 1593 1584 C 1588 1588 1585 1595 1585 1598 C 1584 1602 1581 1615 1576 1627 C 1571 1642 1574 1657 1584 1672 C 1608 1705 1604 1753 1575 1784 C 1555 1806 1543 1810 1495 1810 C 1449 1810 1440 1807 1440 1793 z M 1545 1725 C 1545 1700 1541 1695 1520 1695 C 1499 1695 1494 1700 1492 1728 C 1489 1759 1490 1761 1517 1758 C 1541 1755 1545 1750 1545 1725 z" stroke-linecap="round" />
</g>
		<g transform="matrix(0.13 0 0 -0.13 -105.38 108.45)"  >
<path style="stroke: none; stroke-width: 1; stroke-dasharray: none; stroke-linecap: butt; stroke-dashoffset: 0; stroke-linejoin: miter; stroke-miterlimit: 4; fill: rgb(255,215,163); fill-rule: nonzero; opacity: 1;" vector-effect="non-scaling-stroke"  transform=" translate(-1710, -1684.5)" d="M 1640 1684 L 1640 1560 L 1688 1560 C 1754 1560 1780 1569 1780 1591 C 1780 1607 1772 1610 1735 1610 C 1694 1610 1690 1612 1690 1635 C 1690 1657 1694 1660 1729 1660 C 1772 1660 1784 1669 1774 1694 C 1770 1705 1755 1710 1729 1710 C 1694 1710 1690 1713 1690 1735 C 1690 1761 1695 1763 1748 1760 C 1776 1759 1780 1762 1780 1784 C 1780 1808 1778 1809 1710 1809 L 1640 1809 L 1640 1684 z" stroke-linecap="round" />
</g>
		<g transform="matrix(0.13 0 0 -0.13 -77.34 108.32)"  >
<path style="stroke: none; stroke-width: 1; stroke-dasharray: none; stroke-linecap: butt; stroke-dashoffset: 0; stroke-linejoin: miter; stroke-miterlimit: 4; fill: rgb(255,215,163); fill-rule: nonzero; opacity: 1;" vector-effect="non-scaling-stroke"  transform=" translate(-1920.27, -1685.5)" d="M 1821 1713 C 1821 1652 1825 1611 1833 1601 C 1842 1589 1842 1588 1833 1594 C 1818 1603 1816 1591 1830 1570 C 1838 1558 1840 1558 1840 1569 C 1840 1580 1843 1580 1855 1570 C 1868 1559 1870 1564 1870 1609 C 1870 1665 1884 1670 1895 1619 C 1905 1576 1939 1583 1956 1630 L 1968 1665 L 1969 1613 C 1970 1563 1972 1560 1995 1560 L 2020 1560 L 2019 1686 L 2018 1811 L 1993 1808 C 1973 1806 1964 1796 1955 1770 C 1946 1746 1946 1731 1953 1722 C 1960 1713 1959 1706 1950 1697 C 1940 1688 1939 1688 1944 1698 C 1948 1704 1946 1710 1941 1710 C 1935 1710 1930 1702 1930 1693 C 1930 1665 1915 1691 1895 1753 C 1878 1804 1873 1810 1849 1810 L 1821 1810 L 1821 1713 z" stroke-linecap="round" />
</g>
		<g transform="matrix(0.13 0 0 -0.13 -54.09 108.39)"  >
<path style="stroke: none; stroke-width: 1; stroke-dasharray: none; stroke-linecap: butt; stroke-dashoffset: 0; stroke-linejoin: miter; stroke-miterlimit: 4; fill: rgb(255,215,163); fill-rule: nonzero; opacity: 1;" vector-effect="non-scaling-stroke"  transform=" translate(-2094.71, -1685)" d="M 2070 1685 C 2070 1616 2074 1560 2079 1560 C 2117 1560 2121 1571 2119 1678 C 2117 1799 2115 1810 2089 1810 C 2071 1810 2070 1801 2070 1685 z" stroke-linecap="round" />
</g>
		<g transform="matrix(0.13 0 0 -0.13 -33.62 108.41)"  >
<path style="stroke: none; stroke-width: 1; stroke-dasharray: none; stroke-linecap: butt; stroke-dashoffset: 0; stroke-linejoin: miter; stroke-miterlimit: 4; fill: rgb(255,215,163); fill-rule: nonzero; opacity: 1;" vector-effect="non-scaling-stroke"  transform=" translate(-2248.19, -1684.85)" d="M 2170 1705 C 2170 1613 2173 1597 2190 1580 C 2211 1559 2284 1552 2295 1570 C 2298 1576 2297 1580 2292 1580 C 2286 1580 2287 1590 2293 1605 C 2303 1626 2306 1627 2312 1612 C 2316 1600 2319 1606 2321 1630 C 2322 1649 2324 1679 2326 1695 C 2327 1712 2326 1744 2323 1768 C 2318 1805 2315 1811 2296 1808 C 2277 1805 2275 1798 2274 1735 C 2273 1609 2273 1610 2245 1610 L 2220 1610 L 2220 1710 L 2220 1810 L 2195 1810 L 2170 1810 L 2170 1705 z" stroke-linecap="round" />
</g>
		<g transform="matrix(0.13 0 0 -0.13 -4.18 108.24)"  >
<path style="stroke: none; stroke-width: 1; stroke-dasharray: none; stroke-linecap: butt; stroke-dashoffset: 0; stroke-linejoin: miter; stroke-miterlimit: 4; fill: rgb(255,215,163); fill-rule: nonzero; opacity: 1;" vector-effect="non-scaling-stroke"  transform=" translate(-2469, -1686.13)" d="M 2370 1690 C 2370 1590 2373 1569 2384 1573 C 2391 1576 2403 1573 2409 1567 C 2417 1559 2420 1570 2421 1610 L 2422 1665 L 2437 1628 C 2447 1605 2459 1590 2470 1590 C 2481 1590 2493 1605 2503 1628 L 2518 1665 L 2519 1612 C 2520 1563 2522 1559 2543 1562 C 2564 1565 2565 1569 2567 1688 L 2568 1810 L 2541 1810 C 2517 1810 2511 1804 2501 1769 C 2492 1738 2491 1725 2501 1714 C 2507 1706 2509 1700 2504 1700 C 2499 1700 2502 1695 2510 1689 C 2523 1680 2523 1679 2510 1683 C 2502 1685 2496 1693 2498 1699 C 2499 1705 2496 1710 2490 1710 C 2485 1710 2480 1703 2480 1695 C 2480 1662 2464 1684 2445 1743 C 2427 1797 2421 1805 2397 1808 L 2370 1811 L 2370 1690 z" stroke-linecap="round" />
</g>
		<g transform="matrix(0.13 0 0 -0.13 34.49 108.58)"  >
<path style="stroke: none; stroke-width: 1; stroke-dasharray: none; stroke-linecap: butt; stroke-dashoffset: 0; stroke-linejoin: miter; stroke-miterlimit: 4; fill: rgb(255,215,163); fill-rule: nonzero; opacity: 1;" vector-effect="non-scaling-stroke"  transform=" translate(-2759.03, -1683.54)" d="M 2700 1790 C 2682 1772 2679 1758 2681 1685 C 2682 1611 2685 1599 2706 1579 L 2730 1557 L 2730 1578 C 2730 1606 2747 1607 2755 1580 C 2758 1569 2767 1560 2775 1560 C 2794 1560 2827 1592 2835 1618 C 2841 1637 2838 1640 2811 1640 C 2789 1640 2780 1635 2780 1624 C 2780 1614 2773 1610 2758 1612 C 2737 1615 2735 1621 2732 1688 C 2729 1759 2729 1760 2755 1760 C 2769 1760 2783 1753 2786 1745 C 2790 1737 2801 1730 2812 1730 C 2827 1730 2831 1736 2828 1755 C 2826 1769 2821 1780 2816 1779 C 2811 1779 2803 1785 2798 1794 C 2785 1817 2725 1815 2700 1790 z" stroke-linecap="round" />
</g>
		<g transform="matrix(0.13 0 0 -0.13 60.41 108.39)"  >
<path style="stroke: none; stroke-width: 1; stroke-dasharray: none; stroke-linecap: butt; stroke-dashoffset: 0; stroke-linejoin: miter; stroke-miterlimit: 4; fill: rgb(255,215,163); fill-rule: nonzero; opacity: 1;" vector-effect="non-scaling-stroke"  transform=" translate(-2953.43, -1685)" d="M 2896 1794 C 2881 1780 2873 1683 2880 1615 C 2883 1579 2910 1560 2955 1560 C 3020 1560 3032 1580 3029 1686 C 3027 1791 3015 1810 2953 1810 C 2929 1810 2905 1804 2896 1794 z M 2980 1690 C 2980 1613 2979 1610 2956 1610 C 2935 1610 2932 1615 2927 1671 C 2921 1744 2924 1757 2953 1763 C 2965 1765 2976 1768 2978 1769 C 2979 1769 2980 1734 2980 1690 z" stroke-linecap="round" />
</g>
		<g transform="matrix(0.13 0 0 -0.13 86.55 108.39)"  >
<path style="stroke: none; stroke-width: 1; stroke-dasharray: none; stroke-linecap: butt; stroke-dashoffset: 0; stroke-linejoin: miter; stroke-miterlimit: 4; fill: rgb(255,215,163); fill-rule: nonzero; opacity: 1;" vector-effect="non-scaling-stroke"  transform=" translate(-3149.5, -1685)" d="M 3081 1685 L 3079 1560 L 3105 1560 C 3128 1560 3130 1563 3130 1610 L 3130 1660 L 3170 1660 C 3206 1660 3210 1662 3210 1686 C 3210 1709 3207 1711 3176 1709 C 3157 1707 3135 1712 3126 1719 C 3102 1739 3129 1760 3179 1760 C 3216 1760 3220 1762 3220 1785 C 3220 1809 3218 1810 3151 1810 L 3082 1810 L 3081 1685 z" stroke-linecap="round" />
</g>
		<g transform="matrix(0.13 0 0 -0.13 110.55 108.39)"  >
<path style="stroke: none; stroke-width: 1; stroke-dasharray: none; stroke-linecap: butt; stroke-dashoffset: 0; stroke-linejoin: miter; stroke-miterlimit: 4; fill: rgb(255,215,163); fill-rule: nonzero; opacity: 1;" vector-effect="non-scaling-stroke"  transform=" translate(-3329.5, -1685)" d="M 3261 1685 L 3259 1560 L 3285 1560 C 3308 1560 3310 1563 3310 1610 L 3310 1660 L 3350 1660 C 3386 1660 3390 1662 3390 1686 C 3390 1709 3387 1711 3356 1709 C 3337 1707 3315 1712 3306 1719 C 3282 1739 3309 1760 3359 1760 C 3396 1760 3400 1762 3400 1785 C 3400 1809 3398 1810 3331 1810 L 3262 1810 L 3261 1685 z" stroke-linecap="round" />
</g>
		<g transform="matrix(0.13 0 0 -0.13 134.62 108.39)"  >
<path style="stroke: none; stroke-width: 1; stroke-dasharray: none; stroke-linecap: butt; stroke-dashoffset: 0; stroke-linejoin: miter; stroke-miterlimit: 4; fill: rgb(255,215,163); fill-rule: nonzero; opacity: 1;" vector-effect="non-scaling-stroke"  transform=" translate(-3510, -1685)" d="M 3440 1685 L 3440 1560 L 3488 1560 C 3554 1560 3580 1569 3580 1591 C 3580 1607 3572 1610 3535 1610 C 3494 1610 3490 1612 3490 1635 C 3490 1658 3494 1660 3530 1660 C 3566 1660 3570 1663 3570 1685 C 3570 1708 3566 1710 3529 1710 C 3491 1710 3489 1711 3492 1738 C 3495 1763 3498 1765 3538 1762 C 3577 1758 3580 1760 3580 1784 C 3580 1809 3579 1810 3510 1810 L 3440 1810 L 3440 1685 z" stroke-linecap="round" />
</g>
		<g transform="matrix(0.13 0 0 -0.13 158.62 108.45)"  >
<path style="stroke: none; stroke-width: 1; stroke-dasharray: none; stroke-linecap: butt; stroke-dashoffset: 0; stroke-linejoin: miter; stroke-miterlimit: 4; fill: rgb(255,215,163); fill-rule: nonzero; opacity: 1;" vector-effect="non-scaling-stroke"  transform=" translate(-3690, -1684.5)" d="M 3620 1684 L 3620 1560 L 3668 1560 C 3734 1560 3760 1569 3760 1591 C 3760 1607 3752 1610 3715 1610 C 3674 1610 3670 1612 3670 1635 C 3670 1657 3674 1660 3709 1660 C 3752 1660 3764 1669 3754 1694 C 3750 1705 3735 1710 3709 1710 C 3674 1710 3670 1713 3670 1735 C 3670 1761 3675 1763 3728 1760 C 3756 1759 3760 1762 3760 1784 C 3760 1808 3758 1809 3690 1809 L 3620 1809 L 3620 1684 z" stroke-linecap="round" />
</g>
</g>
</g>
<g transform="matrix(NaN NaN NaN NaN 0 0)"  >
<g style=""   >
</g>
</g>
<g transform="matrix(NaN NaN NaN NaN 0 0)"  >
<g style=""   >
</g>
</g>
<g transform="matrix(NaN NaN NaN NaN 0 0)"  >
<g style=""   >
</g>
</g>
<g transform="matrix(NaN NaN NaN NaN 0 0)"  >
<g style=""   >
</g>
</g>
</svg>